HIERARCHY
ROOT Hips
{
	OFFSET	0	0	0
	CHANNELS 6  Xposition Yposition Zposition Xrotation Yrotation Zrotation
	JOINT Spine
	{
		OFFSET	0	6.43035	1.29592
		CHANNELS 3  Xrotation Yrotation Zrotation
		JOINT Spine1
		{
			OFFSET	0	11.0515	-1.97348
			CHANNELS 3  Xrotation Yrotation Zrotation
			JOINT Spine2
			{
				OFFSET	0	8.37743	0.897934
				CHANNELS 3  Xrotation Yrotation Zrotation
				JOINT Spine3
				{
					OFFSET	0	10.0253	2.97996
					CHANNELS 3  Xrotation Yrotation Zrotation
					JOINT Spine4
					{
						OFFSET	0	14.8406	-1.51958
						CHANNELS 3  Xrotation Yrotation Zrotation
						JOINT Neck
						{
							OFFSET	0	7.0848	-4.96331
							CHANNELS 3  Xrotation Yrotation Zrotation
							JOINT Head
							{
								OFFSET	0	8.50571	-2.54579
								CHANNELS 3  Xrotation Yrotation Zrotation
								End Site
								{
									OFFSET	0	17.7416	-0.858465
								}
							}
						}
					}
					JOINT LeftShoulder
					{
						OFFSET	-4.26272	18.0376	-8.50571
						CHANNELS 3  Xrotation Yrotation Zrotation
						JOINT LeftArm
						{
							OFFSET	-9.26857	-2.54579	3.26613
							CHANNELS 3  Xrotation Yrotation Zrotation
							JOINT LeftForeArm
							{
								OFFSET	-28.2392	-1.28889	2.01568
								CHANNELS 3  Xrotation Yrotation Zrotation
								JOINT LeftHand
								{
									OFFSET	-22.9751	-1.58771	1.63994
									CHANNELS 3  Xrotation Yrotation Zrotation
									End Site
									{
										OFFSET	-8.38477	-0.579434	0.598457
									}
								}
							}
						}
					}
					JOINT RightShoulder
					{
						OFFSET	4.26272	18.0376	-8.50571
						CHANNELS 3  Xrotation Yrotation Zrotation
						JOINT RightArm
						{
							OFFSET	9.26857	-2.54579	3.26613
							CHANNELS 3  Xrotation Yrotation Zrotation
							JOINT RightForeArm
							{
								OFFSET	28.2392	-1.28889	2.01568
								CHANNELS 3  Xrotation Yrotation Zrotation
								JOINT RightHand
								{
									OFFSET	22.9751	-1.58771	1.63994
									CHANNELS 3  Xrotation Yrotation Zrotation
									End Site
									{
										OFFSET	8.38477	-0.579434	0.598457
									}
								}
							}
						}
					}
				}
			}
		}
	}
	JOINT LeftUpLeg
	{
		OFFSET	-8.79432	-3.21518	-0.64796
		CHANNELS 3  Xrotation Yrotation Zrotation
		JOINT LeftLeg
		{
			OFFSET	-1.93242	-37.8649	-0.591911
			CHANNELS 3  Xrotation Yrotation Zrotation
			JOINT LeftFoot
			{
				OFFSET	-1.8889	-34.8184	2.99439
				CHANNELS 3  Xrotation Yrotation Zrotation
				JOINT LeftToeBase
				{
					OFFSET	0	-4.3392	-11.5249
					CHANNELS 3  Xrotation Yrotation Zrotation
					End Site
					{
						OFFSET	0	-1.73568	-6.94272
					}
				}
			}
		}
	}
	JOINT RightUpLeg
	{
		OFFSET	8.79432	-3.21518	-0.64796
		CHANNELS 3  Xrotation Yrotation Zrotation
		JOINT RightLeg
		{
			OFFSET	1.93242	-37.8649	-0.591911
			CHANNELS 3  Xrotation Yrotation Zrotation
			JOINT RightFoot
			{
				OFFSET	1.8889	-34.8184	2.99439
				CHANNELS 3  Xrotation Yrotation Zrotation
				JOINT RightToeBase
				{
					OFFSET	0	-4.3392	-11.5249
					CHANNELS 3  Xrotation Yrotation Zrotation
					End Site
					{
						OFFSET	0	-1.73568	-6.94272
					}
				}
			}
		}
	}
}
MOTION
Frames: 11
Frame Time: 0.020408
 200.646 86.1596 -288.425 85.7288 52.454 -120.544 0.00155322 -0.0104323 8.46831 157.637 -179.98 -165.886 158.442 -179.939 -165.886 167.472 -179.99 -171.532 166.999 -179.364 -177.25 164.305 -161.699 168.403 174.582 -151.37 173.355 1.62256 -28.817 3.52485 89.2541 -133.197 155.679 27.2014 -11.3379 3.98525 -0 1.24958 -11.6895 0.180743 28.6689 -0.392487 145.352 89.1649 -161.481 26.0365 95.5982 -24.2824 -0 -21.7866 -35.144 20.3417 -26.8368 52.3184 139.629 170.069 -179.626 156.411 179.944 168.845 179.672 180 -180 59.0973 -55.7398 59.7322 11.6176 -1.06583 -0.369473 28.2868 0.0247964 -7.8479 179.755 180 -180
 200.411 87.1669 -288.558 83.1928 55.2369 -116.973 0.000498924 -0.00330574 8.58269 157.521 -179.994 -165.696 158.268 -179.981 -165.696 167.245 -179.997 -171.417 167.315 -179.371 -177.209 165.383 -161.465 169.136 174.909 -151.039 173.581 1.56924 -28.6194 3.40919 89.757 -134.814 156.133 27.1468 -10.6052 3.3819 -0 1.75728 -10.7222 0.151068 28.6465 -0.328049 143.132 89.1089 -162.56 18.6516 96.7338 -16.7122 -0 -22.0315 -35.7032 22.1081 -27.3546 51.679 141.246 170.256 -179.837 156.659 179.979 168.99 179.661 180 -180 55.8845 -55.6357 53.5111 11.6378 0.0873164 -0.252438 29.0555 -0.0218494 -8.36357 179.754 180 -180
 200.059 86.3651 -288.9 83.8464 54.9961 -118.21 180 179.999 -171.208 157.524 179.998 -165.347 158.148 179.994 -165.347 166.891 179.999 -171.208 168.15 -179.398 -177.132 167.895 -160.958 170.293 175.705 -150.59 174.02 1.58042 -28.6595 3.43346 90.4303 -136.787 155.889 27.1069 -10.1449 3.03705 -0 2.06305 -10.088 179.938 152.26 -179.865 152.709 90.5415 -175.466 16.8311 96.7829 -15.1273 -0 -22.3984 -36.2001 23.4884 -28.2173 50.8038 142.17 170.402 179.873 156.391 179.997 169.124 179.648 180 -180 52.4286 -55.4635 48.7274 11.3378 1.40725 -0.285489 27.0595 0.0621033 -8.92081 179.751 180 -180
 200.291 86.0181 -289.56 84.5072 55.6442 -118.27 179.999 179.991 -171.164 157.658 179.983 -165.274 158.181 179.949 -165.274 166.704 179.991 -171.164 168.842 -179.43 -177.11 169.815 -160.333 170.493 176.329 -150.239 174.181 1.57494 -28.604 3.42161 91.1108 -138.597 155.189 27.0361 -9.93056 2.88599 -0 2.13002 -9.91173 179.691 153.479 -179.33 149.185 91.673 -175.105 13.0985 97.5185 -11.2736 -0 -22.7683 -36.8363 23.469 -29.5735 49.5486 142.769 170.336 -179.913 156.757 179.96 169.27 179.638 180 -180 50.307 -54.9803 45.6387 11.6823 2.53894 -0.0800684 26.0285 -0.0179333 -9.35711 179.745 180 -180
 200.456 85.8047 -287.871 81.6939 56.1014 -113.416 179.999 179.993 -171.136 157.883 179.987 -165.226 158.368 179.96 -165.226 166.734 179.993 -171.136 169.196 -179.446 -177.098 170.669 -159.859 170.594 176.587 -149.712 174.208 1.50433 -28.5264 3.26818 91.3887 -140.055 153.819 27.0277 -11.0759 3.55849 -0 1.86427 -9.95476 0.598753 25.1017 -1.29954 43.0903 87.5931 -70.0522 10.4104 99.4789 -8.71751 -0 -23.102 -36.79 23.6429 -30.6172 50.4755 144.031 170.317 179.832 156.837 -179.966 169.434 179.626 180 -180 48.299 -54.7071 43.4922 11.4146 3.46191 -0.0224428 27.023 -0.241189 -9.70022 179.741 180 -180
 199.712 86.0195 -287.96 79.9192 55.8244 -112.1 0.00126295 -0.00815027 8.8084 157.994 -179.984 -165.319 158.405 -179.952 -165.319 166.533 -179.992 -171.192 169.864 -179.483 -177.11 172.611 -159.283 171.272 177.198 -149.116 174.466 1.0975 -27.043 2.38429 91.6209 -141.74 155.203 27.0494 -12.2144 4.15162 -0 1.4849 -9.999 1.25589 24.1867 -2.72439 68.7107 85.9421 -95.5199 8.28117 101.657 -6.50138 -0 -23.2702 -36.6871 23.4072 -31.3536 51.0039 144.863 170.123 179.65 157.348 -179.987 169.56 179.616 180 -180 46.7373 -53.8874 42.1272 11.6656 4.72303 -0.233089 25.6559 -0.0386758 -10.1285 179.73 180 -180
 201.741 84.158 -287.379 75.6551 55.4632 -107.016 0.00185149 -0.012239 8.60239 158.112 -179.976 -165.663 158.416 -179.928 -165.663 166.28 -179.988 -171.398 170.673 -179.535 -177.17 174.967 -158.423 171.723 177.953 -148.408 174.689 0.793576 -28.0043 1.72377 92.9094 -144.448 154.883 27.007 -12.748 4.42097 -0 1.21724 -10.4578 1.62166 23.8911 -3.51755 91.0752 86.3639 -122.221 7.32688 104.153 -5.05527 -0 -23.5769 -36.3191 23.9532 -31.5328 50.9719 146.614 170.199 179.767 157.218 -179.926 169.723 179.603 180 -180 44.2858 -53.3494 40.1515 11.505 5.89752 -0.421708 23.2444 0.177565 -10.5084 179.716 180 -180
 201.921 83.9785 -287.377 73.8808 54.4796 -105.867 0.00271918 -0.0179202 8.62816 158.183 -179.965 -165.62 158.449 -179.895 -165.62 166.197 -179.982 -171.372 170.998 -179.55 -177.159 175.918 -158.056 172.055 178.248 -147.957 174.801 0.408007 -28.2589 0.886131 93.7757 -146.78 155.341 26.9756 -12.9729 4.83576 -0 1.16117 -10.6742 1.58083 23.4602 -3.42723 109.321 87.7775 -143.194 6.29157 106.483 -3.99026 -0 -23.8429 -36.2656 24.0005 -32.1523 50.6558 147.386 170.151 179.767 157.737 -179.867 169.833 179.594 180 -180 42.7647 -52.9674 38.2292 11.666 6.7648 -0.640944 21.6466 0.113814 -10.8352 179.706 180 -180
 202.293 84.2561 -287.592 74.9826 55.7444 -106.579 180 179.998 -171.519 158.258 179.996 -165.865 158.514 179.988 -165.865 166.281 179.998 -171.519 170.955 -179.555 -177.208 175.723 -157.897 171.951 178.17 -147.651 174.724 179.834 -151.272 179.639 94.3363 -148.89 155.457 27.0565 -13.8537 5.07527 -0 1.07839 -10.6899 1.54951 23.397 -3.359 134.431 88.2482 -169.638 5.22071 108.948 -3.02361 -0 -23.99 -36.274 24.2204 -32.8632 50.4296 149.059 170.134 179.842 157.656 -179.883 169.922 179.58 180 -180 41.8121 -52.6311 36.4252 11.6832 7.4012 -0.230855 21.0325 -0.0223867 -11.0848 179.697 180 -180
 202.796 83.9831 -288.033 75.6516 54.7362 -107.033 179.999 179.993 -171.704 158.474 179.986 -166.173 158.767 179.957 -166.173 166.551 179.993 -171.704 170.735 -179.554 -177.271 174.941 -157.577 172.006 177.848 -146.563 174.55 178.416 -151.262 176.56 95.4844 -153.008 155.716 26.9744 -13.6633 5.06425 -0 1.12502 -10.7524 1.50124 23.8961 -3.25609 134.106 87.6393 -169.747 4.18146 111.789 -2.06978 -0 -24.0438 -36.3502 23.6162 -34.067 49.3827 150.412 170.108 179.956 157.71 -179.867 169.996 179.564 180 -180 39.9135 -52.6977 34.8587 11.6577 8.12738 0.126908 22.4573 -0.0212287 -11.3572 179.688 180 -180
 200.806 83.35 -288.104 78.7459 55.6604 -108.085 0.00318299 -0.0220584 8.21098 158.762 -179.957 -166.315 159.088 -179.87 -166.315 166.754 -179.978 -171.789 170.79 -179.562 -177.298 174.951 -157.257 172.548 177.782 -145.482 174.566 177.292 -151.355 174.112 96.0279 -156.494 156.186 26.9753 -13.1757 4.9563 -0 1.28549 -10.5591 1.45964 24.9699 -3.16885 134.115 87.4807 -169.898 4.57781 112.943 -2.50518 -0 -24.2931 -36.0742 22.3758 -36.0359 47.8073 150.855 170.04 179.787 157.611 -179.963 170.02 179.545 180 -180 37.8264 -52.8312 32.3188 11.5433 8.82955 -0.111434 23.9325 0.00772243 -11.4776 179.681 180 -180
